<?xml version="1.0" encoding="utf-8"?>
<!-- Generator: Adobe Illustrator 22.0.1, SVG Export Plug-In . SVG Version: 6.00 Build 0)  -->
<svg version="1.1" id="Layer_1" xmlns="http://www.w3.org/2000/svg" xmlns:xlink="http://www.w3.org/1999/xlink" x="0px" y="0px"
	 viewBox="0 0 200 200" style="enable-background:new 0 0 200 200;" xml:space="preserve">
<style type="text/css">
	.st0{fill:#60987E;}
	.st1{fill:#A69F3D;}
	.st2{fill:#EFAA1E;}
	.st3{fill:#128ECE;}
	.st4{fill:#F0AB00;}
	.st5{fill:#A8A240;}
	.st6{fill:#40875E;}
	.st7{fill:none;stroke:#231F20;stroke-width:2.5;stroke-miterlimit:10;}
	.st8{fill:none;stroke:#000000;stroke-width:2.5;stroke-miterlimit:10;}
	.st9{fill:#0B4A99;}
	.st10{fill:none;stroke:#F0AB00;stroke-width:8;stroke-linecap:round;stroke-miterlimit:10;}
	.st11{fill:#231F20;}
</style>
<g>
	<path class="st11" d="M90.7,133.7H63.2l-0.2-1c-2.3-13.8-13.8-29.9-18.6-36.2c-2.6-3.4-4.7-6.8-6.3-10.2c-8.1-17.1-9.8-32.9-5.1-47
		C37.7,24.9,47.9,16,55.6,11C70.2,1.6,86.2,0.9,90.7,0.9v2.5C86.3,3.4,71,4.1,57,13.1c-11.7,7.5-36.8,29.7-16.7,72
		c1.6,3.3,3.5,6.5,6.1,9.8c6,7.8,16.3,22.7,18.9,36.3h25.4V133.7z"/>
</g>
<rect x="63" y="142.9" class="st5" width="63.1" height="10.8"/>
<rect x="63" y="160.7" class="st5" width="63.1" height="9.5"/>
<polygon class="st4" points="108.6,188.4 81.5,188.4 69.1,178.9 120.9,178.9 "/>
<polygon class="st4" points="98.9,200 91.1,200 87.5,196.4 102.5,196.4 "/>
<path class="st6" d="M99.4,39.6c0.4,0,0.7,0,1.1,0c15.4,0,27.8,12.3,27.8,27.4c0,15.1-12.5,27.4-27.8,27.4c-0.4,0-0.7,0-1.1,0V134
	H110c1.6,0,2.9-1.3,2.9-2.8v-10.9c0-1.3,0.9-2.4,2.1-2.7c4-1.1,7.8-2.7,11.4-4.7c1.1-0.6,2.6-0.5,3.5,0.4l7.8,7.7
	c1.1,1.1,2.9,1.1,4.1,0l13.5-13.3c1.1-1.1,1.1-2.9,0-4l-7.8-7.7c-0.9-0.9-1.1-2.3-0.4-3.4c2-3.5,3.6-7.3,4.7-11.2
	c0.4-1.2,1.5-2.1,2.8-2.1h11c1.6,0,2.9-1.3,2.9-2.8V57.6c0-1.6-1.3-2.8-2.9-2.8h-11c-1.3,0-2.4-0.9-2.8-2.1c-1.1-4-2.7-7.7-4.7-11.2
	c-0.6-1.1-0.5-2.5,0.4-3.4l7.8-7.7c1.1-1.1,1.1-2.9,0-4L141.8,13c-1.1-1.1-2.9-1.1-4.1,0l-7.8,7.7c-0.9,0.9-2.3,1.1-3.5,0.4
	c-3.6-2-7.4-3.5-11.4-4.7c-1.3-0.4-2.1-1.4-2.1-2.7V2.8c0-1.6-1.3-2.8-2.9-2.8H99.4V39.6z"/>
<path class="st6" d="M99.4,49.2c10,0,18.1,8,18.1,17.9s-8.1,17.9-18.1,17.9"/>
</svg>
